<svg id="Pin" xmlns="http://www.w3.org/2000/svg" viewBox="0 0 340.23 512"><defs><style>.cls-1{fill:#f60;}</style></defs><title>NRD-00001_02013_ICO_Pin ff6600_001</title><path id="ff6600" class="cls-1" d="M159.13,0h191s47.57,3.7,47.57,36.28S351.46,79.6,351.46,79.6l3.33,154.74s45.17,7,59.79,37.21,11.66,78.85,11.66,78.85l-137.72-.18L263.06,506.45s-1,5.55-7.39,5.55-7.13-5.55-7.13-5.55L223,352.62,86.39,350.4s-2.59-46.46,15-78.85,57.2-37.21,57.2-37.21V79.6s-39.24-9.26-39.24-42.21S159.13,0,159.13,0Zm57.94,223.05V92.37c0-5-4.41-9.07-9.81-9.07h0c-5.39,0-9.81,4.08-9.81,9.07V223.05c0,5,4.42,9.07,9.81,9.07h0C212.66,232.12,217.07,228,217.07,223.05Z" transform="translate(-86.25)"/></svg>