<svg id="Focus" xmlns="http://www.w3.org/2000/svg" viewBox="0 0 512 512"><defs><style>.cls-1{fill:#f60;}</style></defs><title>NRD-00001_02013_ICO_Focus ff6600_001</title><g id="ff6600"><path class="cls-1" d="M256,512A256,256,0,0,1,75,75,256,256,0,0,1,437,437,254.33,254.33,0,0,1,256,512Zm0-468.36C138.9,43.64,43.64,138.9,43.64,256S138.9,468.36,256,468.36,468.36,373.1,468.36,256,373.1,43.64,256,43.64Z"/><path class="cls-1" d="M398.26,256A142.2,142.2,0,1,1,323,130.49c-13.84,2.56-23.83,7.47-34,23.22s-8.46,40.81,6.78,56.73c18.4,19.23,46.57,17.11,63,4.58a50.07,50.07,0,0,0,18.85-32.81A141.56,141.56,0,0,1,398.26,256Z"/></g></svg>