<svg id="Filter" xmlns="http://www.w3.org/2000/svg" viewBox="0 0 512 512"><defs><style>.cls-1{fill:#f26722;}</style></defs><title>NRD-00001_02013_ICO_GUI Filter ff6600_002</title><path id="ff6600" class="cls-1" d="M195.38,512A20.55,20.55,0,0,1,174.83,492L169,251.22,4.15,32.93A20.55,20.55,0,0,1,20.56,0H491.44a20.54,20.54,0,0,1,16.29,33.08L339.83,251.14l-.64,190.94A20.57,20.57,0,0,1,328.56,460L205.31,509.44A20.49,20.49,0,0,1,195.38,512ZM61.83,41.1,205.77,231.74a20.5,20.5,0,0,1,4.14,11.88l5.2,213.49,83-32.4L298.73,244A20.56,20.56,0,0,1,303,231.59L449.67,41.1Z" transform="translate(0)"/></svg>