<svg id="Checkbox" xmlns="http://www.w3.org/2000/svg" viewBox="0 0 512 473.57"><defs><style>.cls-1{fill:#f60;}</style></defs><title>NRD-00001_02013_ICO_CheckBox ff6600_001</title><g id="ff6600"><path class="cls-1" d="M452.11,493.67H20.77A20.77,20.77,0,0,1,0,472.9v-432A20.77,20.77,0,0,1,20.77,20.09H392.91a20.77,20.77,0,1,1,0,41.54H41.54V452.12h389.8V198a20.77,20.77,0,1,1,41.54,0V472.9A20.77,20.77,0,0,1,452.11,493.67Z" transform="translate(0 -20.09)"/><path class="cls-1" d="M217.75,373.89a20.75,20.75,0,0,1-14.6-6l-118.4-117A20.77,20.77,0,0,1,114,221.34l102.71,101.5L475.6,27.18a20.77,20.77,0,0,1,31.25,27.37L233.37,366.8a20.72,20.72,0,0,1-14.88,7.07Z" transform="translate(0 -20.09)"/></g></svg>