<svg id="Hamburger" xmlns="http://www.w3.org/2000/svg" viewBox="0 0 510.93 358"><defs><style>.cls-1{fill:#ccc;}</style></defs><title>NRD-00001_02013_ICO_Hamburger cccccc_001</title><g id="cccccc"><path class="cls-1" d="M477.5,145H35.1a34,34,0,1,1,0-68H477.5a34,34,0,1,1,0,68Z" transform="translate(-1.07 -77)"/><path class="cls-1" d="M477.5,290.55H35.1a34,34,0,1,1,0-68H477.5a34,34,0,1,1,0,68Z" transform="translate(-1.07 -77)"/><path class="cls-1" d="M478,435H35.57a34,34,0,1,1,0-68H478a34,34,0,1,1,0,68Z" transform="translate(-1.07 -77)"/></g></svg>