<svg id="Refresh" xmlns="http://www.w3.org/2000/svg" viewBox="0 0 483 485.8"><defs><style>.cls-1{fill:#ccc;}</style></defs><title>NRD-00001_02013_ICO_Refresh cccccc_001</title><g id="cccccc"><path class="cls-1" d="M256.33,498.83A239.24,239.24,0,0,1,85.52,427.65,242.07,242.07,0,0,1,14.83,255.93a246.43,246.43,0,0,1,4.39-46.32,20,20,0,0,1,39.29,7.54,205.89,205.89,0,0,0-3.68,38.78c0,111.88,90.4,202.9,201.5,202.9a200.24,200.24,0,0,0,116-37L335,383.17H440.28V489.83l-39.34-39.34A240.14,240.14,0,0,1,256.33,498.83Z" transform="translate(-14.83 -13.04)"/><path class="cls-1" d="M474.33,315.74a20.33,20.33,0,0,1-3.54-.31,20,20,0,0,1-16.16-23.22,207.11,207.11,0,0,0,3.2-36.28C457.83,144.06,367.44,53,256.33,53a200.16,200.16,0,0,0-116.06,37l38.78,38.77H72.38V22.17l39.27,39.27A241.59,241.59,0,0,1,497.83,255.93,247,247,0,0,1,494,299.27,20,20,0,0,1,474.33,315.74Z" transform="translate(-14.83 -13.04)"/></g></svg>