<svg id="Nav" xmlns="http://www.w3.org/2000/svg" viewBox="0 0 512 507"><defs><style>.cls-1{fill:#f60;}</style></defs><title>NRD-00001_02013_ICO_Nav ff6600_001</title><g id="ff6600"><path class="cls-1" d="M256,507A255.6,255.6,0,0,1,75,432.75C26.63,384.87,0,321.21,0,253.5S26.63,122.13,75,74.25a257.79,257.79,0,0,1,362,0c48.35,47.88,75,111.54,75,179.25s-26.63,131.37-75,179.25A255.6,255.6,0,0,1,256,507Zm0-455.74C143.39,51.26,51.77,142,51.77,253.5S143.39,455.74,256,455.74,460.23,365,460.23,253.5,368.61,51.26,256,51.26Z"/><path class="cls-1" d="M117.53,389.29l92.59-183L394,114.67l-90.44,183.8Zm115.75-160-46.55,92,93.55-45.68Z"/></g></svg>