<svg id="Project" xmlns="http://www.w3.org/2000/svg" viewBox="0 0 495.08 512"><defs><style>.cls-1{fill:#ccc;}</style></defs><title>NRD-00001_02013_ICO_Project cccccc_001</title><g id="Project-2" data-name="Project"><polygon class="cls-1" points="495.08 435.09 334.82 435.09 334.82 395.43 384.26 334.59 334.82 272.66 334.82 184.65 395.8 184.52 395.8 234.09 359.95 234.09 408.43 284.07 457.32 234.22 421.61 234.22 421.47 158.17 334.82 158.03 334.82 85.24 495.08 85.24 495.08 435.09"/><path class="cls-1" d="M313.21,512,8.27,459.17V52.83L313.21,0ZM73.88,387.84h59.83V166.75c.83-.61,31.76-4,43.78-.06,14.44,4.79,28.33,13.35,28.33,35.89,0,20.92-8.24,29.46-18.36,36.28s-22.37,7.61-34.23,8.32v46.36c35.66,0,67.26-8.72,87.86-28.13,15.85-15.06,24.57-37.24,24.57-63.39s-11.49-48.34-28.53-61.81c-17.83-14.27-44.38-21.4-81.62-21.4-36.85,0-63,2.38-81.62,5.55Z" transform="translate(-8.27)"/></g></svg>